<?xml version="1.0" encoding="UTF-8"?>
<!DOCTYPE svg PUBLIC "-//W3C//DTD SVG 1.1//EN" "http://www.w3.org/Graphics/SVG/1.1/DTD/svg11.dtd">
<!-- Creator: CorelDRAW -->
<svg xmlns="http://www.w3.org/2000/svg" xml:space="preserve" width="32.3801mm" height="14.2567mm" version="1.1" style="shape-rendering:geometricPrecision; text-rendering:geometricPrecision; image-rendering:optimizeQuality; fill-rule:evenodd; clip-rule:evenodd"
viewBox="0 0 196.76 86.63"
 xmlns:xlink="http://www.w3.org/1999/xlink"
 xmlns:xodm="http://www.corel.com/coreldraw/odm/2003">
 <defs>
  <style type="text/css">
   <![CDATA[
    .fil1 {fill:#2B425A}
    .fil0 {fill:#475E74}
   ]]>
  </style>
 </defs>
 <g id="Layer_x0020_1">
  <metadata id="CorelCorpID_0Corel-Layer"/>
  <path class="fil0" d="M99.68 77.71l-0.17 -46.81 -3.68 -0c-9.42,-0.15 -36.09,6.97 -40.09,10.7 -1.58,1.47 -3.23,18.1 -3.9,21.8 -0.86,4.81 -3.83,17.73 -3.55,21.92 9.93,-4.81 25.24,-8.47 36.97,-8.34 4.59,0.05 10.17,1.05 14.42,0.73z"/>
  <g id="_1685176177136">
   <path class="fil1" d="M99.67 27.5c19.3,0.41 20.53,3.93 33.26,7.32 -4.64,0.28 -22.53,-4.14 -33.41,-3.91l0.17 46.81c8.35,-0.86 21.18,-0.29 28.97,1.43 4.33,0.96 8.16,1.99 12.16,3.29 3.36,1.09 8.97,3.65 11.98,4.19l-1.83 -13.82 7.86 -3.65c3.59,-3.28 35.42,-17.72 37.93,-20.04l-44 -22.34c-14.41,-6.93 -29.35,-14.94 -43.95,-22.42 -11.89,-6.09 -6.64,-5.97 -21.89,1.53l-44.46 21.92c-3.61,1.81 -7.3,3.76 -10.97,5.47 -2.51,1.17 -9.6,4.22 -11.33,5.67l0.02 13.86c2.17,-0.52 13.79,-7.41 16.61,-9.04 5.95,-3.46 10.88,-5.84 18.28,-8.48 13.01,-4.65 29.5,-8.15 44.6,-7.78z"/>
   <path class="fil1" d="M38.36 69.46c2.41,0.95 4.31,2.7 6.91,3.23l4.5 -30.65c-2.29,0.65 -21.1,11.7 -26.27,14.64l-3.76 2.6c2.47,2.18 15.61,8.09 18.62,10.18z"/>
   <path class="fil1" d="M-0 48.99c1.28,1.11 13.02,7.03 14.69,7.26l0.05 -14.66c-1.73,0.51 -13.75,6.42 -14.74,7.4z"/>
  </g>
 </g>
</svg>
